<?xml version="1.0" encoding="UTF-8"?>
<!DOCTYPE svg PUBLIC "-//W3C//DTD SVG 1.1//EN" "http://www.w3.org/Graphics/SVG/1.1/DTD/svg11.dtd">
<!-- Creator: CorelDRAW -->
<svg xmlns="http://www.w3.org/2000/svg" xml:space="preserve" width="67.9352mm" height="67.9319mm" version="1.1" style="shape-rendering:geometricPrecision; text-rendering:geometricPrecision; image-rendering:optimizeQuality; fill-rule:evenodd; clip-rule:evenodd"
viewBox="0 0 733.12 733.08"
 xmlns:xlink="http://www.w3.org/1999/xlink"
 xmlns:xodm="http://www.corel.com/coreldraw/odm/2003">
 <defs>
  <style type="text/css">
   <![CDATA[
    .fil1 {fill:#0F4A44}
    .fil0 {fill:#127C71}
    .fil2 {fill:#FDFEFE}
   ]]>
  </style>
 </defs>
 <g id="Layer_x0020_1">
  <metadata id="CorelCorpID_0Corel-Layer"/>
  <g id="_105553233536832">
   <path class="fil0" d="M379.86 733.08c-4.29,-7.58 -32.17,-33.3 -40.45,-41.58 -13.71,-13.71 -26.37,-26.39 -40.09,-40.09 -8.48,-8.46 -78.92,-77.98 -79.2,-79.84 -14.32,-15.05 -22.87,-17.54 -1.27,-46.35l93.47 -125.41c-4.11,-4.39 -88.02,-86.83 -89.34,-90.54l0.01 -1.36c-3.61,-5.44 -32.73,-18.85 -38.95,-61.11 -10.13,-68.73 42.74,-115.57 87,-108.58 18.22,2.88 38.18,13.62 49.03,25.64 2.96,3.28 7.95,11.17 11.01,13.43 5.02,2.15 53.16,51.77 63.64,62.28 5.82,5.83 18.01,15.75 21.03,23.1l60.85 -81.1c3.27,-4.36 8.4,-12.04 11.99,-15.23 11.09,-9.85 26.16,-8.24 36.41,7.18 3.82,1.46 1.19,-0.02 4.6,2.79l203.55 202.92c0,-45.47 -2.41,-80 -16.27,-122.44 -15.67,-47.98 -41.72,-96.81 -75.01,-132.62 -3.41,-3.67 -4.18,-5.62 -7.85,-9.33 -58.72,-59.34 -133.93,-102.75 -218.74,-112.02 -102.16,-11.16 -188.79,10.38 -270.63,71.6 -73.9,55.28 -127.46,141.54 -141.52,240.79 -1.5,10.59 -2.53,21.11 -3.1,31.57l0 39.77c3.54,63.73 24.03,124.28 58.43,179.28 4.65,7.44 8.97,13.18 14.19,20.18 2.89,3.87 4.89,6.18 7.57,9.61 23.07,29.53 50.6,54.37 81.89,75.62 28.01,19.02 58.16,33.4 93.68,45.21 17.13,5.7 37.28,10.29 56.99,13.17 22.19,3.24 41.06,3.45 65.93,3.45l1.19 0z"/>
   <path class="fil1" d="M463.72 413.06c30.35,-4.45 64.7,20.2 78.06,48.87 15.03,32.25 10.17,73.99 -11.12,101.59 -28.3,36.69 -77.76,43.55 -115.45,7.78 -5.3,-5.03 -13.47,-16.21 -17.69,-25.27 -14.96,-32.12 -10.25,-74.28 11.12,-101.61 10.86,-13.89 28.77,-27.51 55.08,-31.37zm-243.61 158.53c0.27,1.86 70.72,71.37 79.2,79.84 13.72,13.7 26.38,26.38 40.09,40.09 8.28,8.28 36.16,33.99 40.45,41.58 100.54,0 202.36,-53.41 266.92,-129.3 3.5,-4.12 6.02,-7.76 9.47,-12.01 44.46,-54.76 76.87,-139.65 76.87,-212.54l-203.55 -202.92c-3.41,-2.81 -0.77,-1.33 -4.6,-2.79 5.74,20.25 -11.04,34.78 -27.87,57.22 -12.87,17.16 -25.06,33.42 -38.05,50.73l-190.24 253.64c-22.88,30.32 -22.46,38.48 -48.7,36.47z"/>
   <path class="fil2" d="M415.73 262.68c-20.27,25 -56.18,74.98 -77.21,103.01l-26.21 34.13 -93.47 125.41c-21.6,28.82 -13.05,31.3 1.27,46.35 26.24,2.01 25.82,-6.15 48.7,-36.47l190.24 -253.64c12.98,-17.31 25.18,-33.57 38.05,-50.73 16.83,-22.44 33.61,-36.97 27.87,-57.22 -10.24,-15.41 -25.32,-17.03 -36.41,-7.18 -3.59,3.19 -8.72,10.87 -11.99,15.23l-60.85 81.1z"/>
   <path class="fil2" d="M463.25 459.49c42.68,-12.66 57.71,76.05 13.79,89.18 -42.42,12.68 -60.87,-75.21 -13.79,-89.18zm0.47 -46.43c-26.31,3.86 -44.22,17.49 -55.08,31.37 -21.37,27.34 -26.08,69.49 -11.12,101.61 4.22,9.05 12.39,20.24 17.69,25.27 37.69,35.76 87.15,28.9 115.45,-7.78 21.29,-27.6 26.15,-69.34 11.12,-101.59 -13.36,-28.67 -47.71,-53.33 -78.06,-48.87z"/>
   <path class="fil2" d="M258.58 183.81c21.98,-4.5 37,19.32 38.89,39.57 5.61,59.89 -62.41,71.04 -68.03,11.37 -2.25,-23.92 10.16,-47.06 29.14,-50.94zm-35.6 124.11c16.36,5.24 27.73,17.67 56.44,10.1 51.18,-13.5 73.63,-66.67 62.12,-113.92 -2.82,-11.57 -8.12,-18.8 -10.47,-26.8 -3.06,-2.26 -8.05,-10.15 -11.01,-13.43 -10.85,-12.02 -30.81,-22.76 -49.03,-25.64 -44.26,-6.99 -97.12,39.86 -87,108.58 6.23,42.26 35.35,55.66 38.95,61.11z"/>
   <path class="fil1" d="M222.98 307.93l-0.01 1.36c1.32,3.71 85.23,86.14 89.34,90.54l26.21 -34.13c21.03,-28.03 56.95,-78.01 77.21,-103.01 -3.02,-7.35 -15.21,-17.27 -21.03,-23.1 -10.48,-10.51 -58.62,-60.13 -63.64,-62.28 2.35,8 7.65,15.22 10.47,26.8 11.51,47.25 -10.94,100.42 -62.12,113.92 -28.7,7.57 -40.08,-4.85 -56.44,-10.1z"/>
   <path class="fil1" d="M258.58 183.81c-18.98,3.88 -31.39,27.02 -29.14,50.94 5.62,59.67 73.64,48.52 68.03,-11.37 -1.9,-20.25 -16.91,-44.07 -38.89,-39.57z"/>
   <path class="fil1" d="M463.25 459.49c-47.08,13.96 -28.64,101.86 13.79,89.18 43.92,-13.13 28.9,-101.83 -13.79,-89.18z"/>
  </g>
 </g>
</svg>
