<?xml version="1.0" encoding="UTF-8"?>
<!DOCTYPE svg PUBLIC "-//W3C//DTD SVG 1.1//EN" "http://www.w3.org/Graphics/SVG/1.1/DTD/svg11.dtd">
<!-- Creator: CorelDRAW -->
<svg xmlns="http://www.w3.org/2000/svg" xml:space="preserve" width="63.2971mm" height="63.2971mm" version="1.1" style="shape-rendering:geometricPrecision; text-rendering:geometricPrecision; image-rendering:optimizeQuality; fill-rule:evenodd; clip-rule:evenodd"
viewBox="0 0 507.75 507.75"
 xmlns:xlink="http://www.w3.org/1999/xlink"
 xmlns:xodm="http://www.corel.com/coreldraw/odm/2003">
 <defs>
  <style type="text/css">
   <![CDATA[
    .str0 {stroke:#F2F3F5;stroke-width:0.61;stroke-miterlimit:22.9256}
    .fil9 {fill:none}
    .fil6 {fill:black}
    .fil1 {fill:#0F4A44}
    .fil0 {fill:#127C71}
    .fil7 {fill:#ECA026}
    .fil3 {fill:#F2F3F5}
    .fil5 {fill:#FDB137}
    .fil4 {fill:#FDFEFE}
    .fil2 {fill:#FFC221}
    .fil8 {fill:#FFD05B}
   ]]>
  </style>
   <clipPath id="id0">
    <path d="M253.88 0c140.21,0 253.87,113.66 253.87,253.88 0,140.21 -113.66,253.87 -253.87,253.87 -140.21,0 -253.88,-113.66 -253.88,-253.87 0,-140.21 113.66,-253.88 253.88,-253.88z"/>
   </clipPath>
 </defs>
 <g id="Layer_x0020_1">
  <metadata id="CorelCorpID_0Corel-Layer"/>
  <path class="fil0" d="M253.88 0c140.21,0 253.87,113.66 253.87,253.88 0,140.21 -113.66,253.87 -253.87,253.87 -140.21,0 -253.88,-113.66 -253.88,-253.87 0,-140.21 113.66,-253.88 253.88,-253.88z"/>
  <g style="clip-path:url(#id0)">
   <g id="_105553233643232">
    <g>
     <path id="_1" class="fil1" d="M392.23 138.3c38.55,73.57 77.09,147.13 115.64,220.69 2.54,4.91 1.3,5.3 1.28,10.94 -1.65,2.32 -1.61,3.14 -3.35,5 -6.5,6.94 -24.1,24.55 -43.8,44.16l59.42 113.4c1.04,1.98 1.21,4.49 0.15,7.18l-16.47 29.16c-1.58,2.79 -2.51,5.18 -2.54,7.6l16.97 32.38c3.03,5.78 4.82,12.13 -1.96,14.87 -0.64,0.26 -2.71,0.45 -5.75,0.59l-76.25 0c-2.27,-0.26 -4.17,-0.94 -5.4,-2.49 -0.71,-0.88 -1.23,-1.55 -1.61,-2.28l-15.38 -29.35 -121.75 0 0 17.42c0,2.52 0.19,5.86 -0.06,8.29 -0.33,3.19 -0.84,3.88 -2.51,5.88 -1.2,1.57 -3.15,2.26 -5.49,2.53l-79.58 0c-1.23,-0.2 -2.33,-0.52 -3.2,-1.01 -1.28,-0.71 -2.23,-1.75 -2.87,-2.96l-115.64 -220.69c-1.39,-2.66 -1.25,-6.17 0.43,-9.02 4.54,-7.72 8.52,-15.21 13.12,-22.86 1.25,-2.07 2.35,-3.97 3.54,-6.1 1.32,-2.36 1.8,-4.46 1.64,-6.53l-19.18 -36.6c-1.87,-5.23 1.05,-9.6 5.98,-10.81 3.89,-0.95 47.34,-0.45 53.5,-0.45 -0.01,-33.05 -3.24,-34.01 18.57,-34.04l-63.95 -122.04c-0.45,-0.87 -0.75,-1.69 -0.85,-2.45l-0.33 -0.64c-0.06,-0.12 -0.14,-0.32 -0.33,-0.81 -1.22,-3.19 -0.04,-6.43 1.29,-8.93 1.8,-3.4 4.52,-5.48 7.23,-8.19 8.86,-8.86 48,-49.36 53.94,-52.83 2.41,-1.47 5.96,-2.57 9.89,-2.57l154.68 0c3.91,0 7.43,1.12 9.85,2.57 5.55,3.29 11.28,10.19 16.02,14.93 6.76,6.76 42.58,41.37 45.12,46.06z"/>
     <g>
      <path class="fil2" d="M243.3 349.63c-0.36,-2.31 -0.68,-50.27 -0.03,-55.86 0.79,-6.85 9.03,-6.13 9.98,-0.5 0.35,2.11 0.71,50.02 0.07,55.64 -0.75,6.58 -9.13,6.39 -10.01,0.72zm37.64 -19.45c-0.68,5.5 1.82,20.78 -2.74,23.02 -9.85,4.84 -7.6,-12.46 -7.6,-18.34l-0.03 -39.22c0.12,-5.09 1.78,-6.67 6.66,-6.78 7.66,-0.17 16.76,-0.94 22.98,2.5 13.23,7.31 14.23,25.14 2.61,34.37 -6.7,5.32 -12.71,3.34 -21.89,4.45zm-79.46 2.58c1.7,-2.89 3.92,-10.47 5.15,-13.95 1.73,-4.91 3.46,-9.74 5.25,-14.66 1.15,-3.15 3.63,-12.01 5.46,-13.81 4.06,-3.98 10.58,-0.44 7.4,8.04 -3.6,9.61 -6.81,19.33 -10.29,28.9 -1.76,4.83 -3.33,9.25 -5.09,14.18 -1.67,4.68 -2.48,12.17 -7.9,12.28 -5.44,0.11 -6.22,-6.94 -7.84,-11.68l-15.52 -43.56c-2.96,-7.82 2.39,-12.37 7.12,-8.41 3.09,2.59 12.83,38.67 16.26,42.66zm-60.37 -25.52c-0.11,10.47 -0.02,20.99 -0.02,31.47 0,7.35 -1.3,25.58 1.52,30.7l33.18 0.04 136.16 0 0.51 0.04c6.87,-3.03 13.88,3.81 13.82,-15.37 -0.02,-8.27 0.42,-69.78 -0.23,-73.15 -0.85,-4.4 -4.04,-5.72 -7.1,-7.78l-46.83 -0.09 -12.55 0.29 -10.77 -0 -4.53 0.1 -5.3 -0.03 -10.84 -0.15 -12.52 -0.13c-17.98,-0.06 -35.97,-0.01 -53.95,-0.01 -23.99,0 -20.56,0.01 -20.55,34.04z"/>
      <path class="fil3" d="M243.86 82.99l17.64 20.34c1.93,2.27 3.9,4.87 5.84,7.02l23.4 27.91 -93.77 0.01 40.82 -48.39c1.89,-2.08 3.78,-5 6.06,-6.89zm-87.2 -5.68l21.8 60.97 -82.96 0.05c-1.33,2.51 -2.51,5.74 -1.29,8.93 0.4,1.05 0.3,0.76 0.65,1.27l87.47 -0.01 45.79 124.82 10.84 0.15 -45.89 -124.86 101.49 -0.1 -43.73 118 -2.02 6.89 10.77 0 9.32 -25.61 36.63 -99.23 59.94 0.13c0.16,-0.05 24.83,-1.06 28.04,0.55 0.02,-5.64 1.26,-6.03 -1.28,-10.94l-27.65 0.01 -55.22 0.02 14.67 -41.22 7.05 -19.79c-2.42,-1.45 -5.94,-2.57 -9.85,-2.57l-5.33 13.7c-0.22,4.99 -13.04,37.11 -15.57,44.71 -2.03,-1.64 -4.23,-4.57 -6.38,-7.01l-37.04 -43.91c-2.12,-2.71 -4.38,-4.55 -6.11,-7.49l-13.88 0 -49.54 58.41 -20.83 -58.41c-3.93,0 -7.48,1.09 -9.89,2.57z"/>
      <path class="fil4" d="M238.96 273.48l5.3 0.03c0.77,-1.81 -0,-0.76 1.42,-2.38 0.44,-0.5 1.06,-0.99 1.62,-1.55 1.48,-1.48 1.73,-2.03 3.51,-3.07l43.73 -118 -101.49 0.1 45.89 124.86z"/>
      <path class="fil4" d="M215.6 273.2l12.52 0.13 -45.79 -124.82 -87.47 0.01c0.38,4.78 9.3,12.26 13.65,16.61l107.1 108.07z"/>
      <path class="fil5" d="M345.38 369.68c-1.75,1.9 -1.95,2.86 -3.63,4.62l-11.57 11.55c-3.29,3.29 -12.6,13.41 -15.66,15.24 1.24,1.56 3.14,2.23 5.41,2.49l10.01 0 66.24 0c3.04,-0.14 5.11,-0.33 5.75,-0.59 10.64,-4.3 0.2,-17.46 -3.05,-23.4l-10.07 -17.55c-2.95,-5.08 -2.23,-8.82 0.65,-13.91l16.47 -29.16c2.02,-5.1 -0.42,-9.57 -4.8,-11 -4.4,-1.45 -47.84,-0.73 -54.51,-0.73 0.22,10.64 0.04,21.46 0.04,32.11 0,6.78 1.39,26.05 -1.28,30.32z"/>
      <path class="fil5" d="M173.21 401.05c-2.94,-1.71 -12.74,-12.31 -15.97,-15.54 -3.68,-3.68 -12.63,-11.59 -14.64,-16.1 -2.82,-5.12 -1.52,-23.35 -1.52,-30.7 0,-10.48 -0.09,-21 0.02,-31.47 -6.15,0 -49.61,-0.5 -53.5,0.45 -4.93,1.21 -7.85,5.58 -5.98,10.81l16.42 29.23c2.91,4.98 3.96,8.82 1.12,13.91 -1.19,2.13 -2.29,4.02 -3.54,6.1 -4.6,7.64 -8.58,15.14 -13.12,22.86 -2.44,4.14 -1.63,9.7 2.44,11.98 0.87,0.49 1.96,0.81 3.2,1.01l14.42 0 54.59 0 10.56 0c2.34,-0.28 4.3,-0.96 5.49,-2.53z"/>
      <path class="fil3" d="M365.47 148.69c-1.65,5.48 -8.15,10.47 -11.42,13.75l-60.72 61.31c-9.11,9.15 -15.03,15.58 -24.44,24.04l-9.32 25.61 12.55 -0.29c4.47,-6.09 100.72,-100.36 118.03,-118.88 1.74,-1.86 1.71,-2.68 3.35,-5 -3.21,-1.61 -27.89,-0.6 -28.04,-0.55z"/>
      <path class="fil4" d="M268.89 247.79c9.41,-8.45 15.32,-14.89 24.44,-24.04l60.72 -61.31c3.27,-3.28 9.76,-8.28 11.42,-13.75l-59.94 -0.13 -36.63 99.23z"/>
      <path class="fil4" d="M243.86 82.99c-2.28,1.89 -4.17,4.8 -6.06,6.89l-40.82 48.39 93.77 -0.01 -23.4 -27.91c-1.94,-2.15 -3.91,-4.75 -5.84,-7.02l-17.64 -20.34z"/>
      <path class="fil4" d="M95.5 138.33l82.96 -0.05 -21.8 -60.97c-5.94,3.47 -45.08,43.97 -53.94,52.83 -2.71,2.71 -5.43,4.79 -7.23,8.19z"/>
      <polygon class="fil4 str0" points="236.92,74.74 166.56,74.74 187.39,133.15 "/>
      <path class="fil2" d="M312.46 369.49l32.92 0.18c2.66,-4.28 1.28,-23.54 1.28,-30.32 0,-10.66 0.18,-21.48 -0.04,-32.11 0.05,-7.42 1.61,-24.97 -1.25,-29.56 -2.3,-3.69 -4.99,-4.53 -10.92,-4.49 -5.16,0.03 -10.32,0.02 -15.49,0.02 3.06,2.06 6.25,3.38 7.1,7.78 0.65,3.37 0.21,64.88 0.23,73.15 0.05,19.18 -6.95,12.33 -13.82,15.37z"/>
      <path class="fil4" d="M315.91 88.44c-5.6,-5.73 -8.58,-9.69 -15.53,-12.38l-3.02 -1.32 -46.55 0c1.74,2.94 3.99,4.78 6.11,7.49l37.04 43.91c2.15,2.44 4.35,5.37 6.38,7.01 2.53,-7.59 15.35,-39.72 15.57,-44.71z"/>
      <path class="fil3" d="M324.03 97.1c3.33,1.79 16.82,16.26 20.63,20.07 3.85,3.85 18.15,17.11 19.92,21.14l27.65 -0.01c-2.54,-4.69 -38.36,-39.3 -45.12,-46.06 -4.74,-4.74 -10.47,-11.64 -16.02,-14.93l-7.05 19.79z"/>
      <path class="fil6" d="M280.86 299.28c24.64,-3.88 22.93,16.04 13.35,19.79 -2.94,1.15 -9.89,1 -13.43,0.61l0.08 -20.39zm0.07 30.9c9.17,-1.11 15.19,0.88 21.89,-4.45 11.62,-9.23 10.61,-27.06 -2.61,-34.37 -6.22,-3.44 -15.32,-2.67 -22.98,-2.5 -4.88,0.11 -6.54,1.69 -6.66,6.78l0.03 39.22c0,5.88 -2.25,23.18 7.6,18.34 4.56,-2.24 2.06,-17.52 2.74,-23.02z"/>
      <path class="fil6" d="M201.47 332.76c-3.43,-3.99 -13.16,-40.07 -16.26,-42.66 -4.73,-3.96 -10.08,0.58 -7.12,8.41l15.52 43.56c1.62,4.74 2.4,11.79 7.84,11.68 5.42,-0.11 6.23,-7.61 7.9,-12.28 1.76,-4.93 3.33,-9.35 5.09,-14.18 3.48,-9.57 6.69,-19.29 10.29,-28.9 3.18,-8.48 -3.34,-12.02 -7.4,-8.04 -1.83,1.79 -4.31,10.65 -5.46,13.81 -1.79,4.92 -3.52,9.74 -5.25,14.66 -1.23,3.48 -3.45,11.06 -5.15,13.95z"/>
      <path class="fil4" d="M364.58 138.31c-1.77,-4.03 -16.07,-17.29 -19.92,-21.14 -3.8,-3.81 -17.29,-18.28 -20.63,-20.07l-14.67 41.22 55.22 -0.02z"/>
      <path class="fil6" d="M243.3 349.63c0.88,5.67 9.26,5.86 10.01,-0.72 0.64,-5.61 0.29,-53.53 -0.07,-55.64 -0.94,-5.63 -9.19,-6.35 -9.98,0.5 -0.65,5.59 -0.33,53.55 0.03,55.86z"/>
      <path class="fil7" d="M173.21 401.05c1.67,-2 2.18,-2.69 2.51,-5.88 0.25,-2.42 0.06,-5.77 0.06,-8.29 -0,-5.81 0,-11.61 0,-17.42l-33.18 -0.04c2.02,4.5 10.96,12.42 14.64,16.1 3.23,3.23 13.03,13.83 15.97,15.54z"/>
      <path class="fil7" d="M314.51 401.09c3.06,-1.83 12.37,-11.95 15.66,-15.24l11.57 -11.55c1.68,-1.76 1.88,-2.72 3.63,-4.62l-32.92 -0.18 -0.51 -0.04c0,5.59 0,11.19 0,16.78 -0,2.61 -0.16,5.79 0.01,8.34 0.24,3.51 0.84,4.38 2.55,6.51z"/>
      <path class="fil8" d="M280.78 319.67c3.54,0.4 10.49,0.55 13.43,-0.61 9.57,-3.75 11.29,-23.67 -13.35,-19.79l-0.08 20.39z"/>
      <path class="fil3" d="M315.91 88.44l5.33 -13.7 -23.88 0 3.02 1.32c6.95,2.7 9.93,6.65 15.53,12.38z"/>
      <path class="fil4" d="M244.26 273.5l4.53 -0.1 2.02 -6.89c-1.78,1.04 -2.03,1.58 -3.51,3.07 -0.56,0.56 -1.18,1.05 -1.62,1.55 -1.42,1.61 -0.65,0.57 -1.42,2.38z"/>
     </g>
    </g>
   </g>
  </g>
  <path class="fil9" d="M253.88 0c140.21,0 253.87,113.66 253.87,253.88 0,140.21 -113.66,253.87 -253.87,253.87 -140.21,0 -253.88,-113.66 -253.88,-253.87 0,-140.21 113.66,-253.88 253.88,-253.88z"/>
 </g>
</svg>
