<?xml version="1.0" encoding="UTF-8"?>
<!DOCTYPE svg PUBLIC "-//W3C//DTD SVG 1.1//EN" "http://www.w3.org/Graphics/SVG/1.1/DTD/svg11.dtd">
<!-- Creator: CorelDRAW -->
<svg xmlns="http://www.w3.org/2000/svg" xml:space="preserve" width="214.329mm" height="80.0936mm" version="1.1" style="shape-rendering:geometricPrecision; text-rendering:geometricPrecision; image-rendering:optimizeQuality; fill-rule:evenodd; clip-rule:evenodd"
viewBox="0 0 689308.85 257591.03"
 xmlns:xlink="http://www.w3.org/1999/xlink"
 xmlns:xodm="http://www.corel.com/coreldraw/odm/2003">
 <defs>
  <style type="text/css">
   <![CDATA[
    .fil2 {fill:#54C259}
    .fil1 {fill:#77DA9C}
    .fil3 {fill:#AAF2AD}
    .fil4 {fill:#B6EDB8}
    .fil0 {fill:white}
   ]]>
  </style>
 </defs>
 <g id="Layer_x0020_1">
  <metadata id="CorelCorpID_0Corel-Layer"/>
  <g id="_105553206949120">
   <path class="fil0" d="M209732.51 64394.22c-1734.13,986.39 -29506.34,1016.62 -33107.43,396.55l49.21 -33482.11c2972.02,-506.54 30805.01,-896.01 33270.17,400.41 8726.31,856.13 16939.97,6466.02 16939.97,16098.64 0,5189.86 -2290.2,9060.15 -5029.38,11598.95 -3424.53,3173.99 -6905.66,3813.68 -12122.54,4987.57zm-33108.08 66345.12l15.76 -41346.5c3155.98,-524.87 18816.58,-226.42 24362.47,-270.8 2081.8,-16.4 2308.86,-450.26 3175.92,1127.25 257.29,1238.21 298.13,1235.96 1086.09,2537.2l23041.61 37952.85 40490.05 0 -31221.5 -47319.81c13410.92,-7096.06 22086.09,-14253.22 25102.82,-30510.09 2836.62,-15285.6 -4778.52,-30273.06 -17317.55,-37766.31 -13512.87,-8075.05 -25639.59,-8801.25 -46811.99,-8801.25 -18537.42,0 -37075.17,0 -55612.91,0l0 124397.46 33689.23 0z"/>
   <path class="fil0" d="M579781.78 130739.34l109527.07 0 0 -24291.07 -76537.66 -157.27 64 -25821.3 62814.46 -123.5 0 -24245.4c-8414.03,0 -58230.19,-953.26 -61955.11,485.31 -1809.39,-803.71 -1284.52,194.58 -1528.3,-2874.89 -311.96,-3935.25 -81.37,-20687.08 554.78,-22683.97l73754.11 -197.47 119.96 -20608.29c-8.68,-400.73 -33.13,-1035.91 -75.9,-1428.6l-277.23 -1304.46c-140.54,-56.6 -315.82,-103.88 -435.14,-131.22 -4457.55,-1026.59 -97592.35,-157.59 -106035,-276.91l9.97 123659.04z"/>
   <polygon class="fil0" points="-0,32196.95 45368.59,32196.95 45368.59,130739.34 79517.08,130739.34 79517.08,32196.95 124885.35,32196.95 124885.35,6341.88 -0,6341.88 "/>
   <path class="fil0" d="M105860.04 190742.9l145.37 145.69c-9.65,-9.65 -193.93,-97.13 -145.37,-145.69zm61466.9 -18537.42c254.4,-3058.86 2531.73,-5046.74 3752.25,-7468.16l2953.05 -8267.37c137.97,-853.56 80.08,-1429.25 217.41,-2250.97 543.85,-3254.4 981.56,-2917.67 -1005.36,-5979.74 -3665.74,-5648.8 -12857.42,-4195.76 -17492.5,-292.67 -932.03,785.06 -1171.31,1464.62 -2347.77,2042.88 -1011.47,496.89 -1625.43,378.22 -2850.45,1051.99l-1811 1603.88c-72.04,69.79 -166.92,179.14 -242.17,245.71 -2597.02,2289.56 -5077.3,1357.85 -5077.3,5654.91 -2138.4,0 -1723.52,-263.4 -3172.39,730.06l-3793.42 2548.78c-2208.51,2346.81 712.05,1245.61 -5228.78,5503.75l-8657.17 8416.92c-1281.95,1423.46 -1205.4,955.51 -2556.5,1833.83 -2222.34,1445.33 -1475.88,2893.55 -4114.39,4666.6l-7123.4 5560.36c-1245.28,1281.63 -314.86,1396.44 -2429.46,1961.19 2872.32,-5985.85 7157.81,-10731.24 9913.38,-16429.9 1594.55,-3296.21 2364.5,-2821.18 4025.3,-5243.57l6715.91 -10860.21c1538.27,-3825.58 -1442.43,-10395.8 -6019.3,-10395.8 -5960.77,0 -10518.02,1132.4 -15895.7,2642.05 -509.11,142.8 -1372,399.12 -1855.06,584.05l-7504.51 3228.02c-3223.2,1012.11 -3703.69,2351.63 -5328.48,2964.62 -2181.18,823.01 -1860.21,-143.12 -4068.4,1297.71 -86.84,56.93 -194.58,149.87 -282.38,205.19 -89.09,56.28 -205.51,137.65 -296.85,191.36 -8.36,4.82 -955.83,462.16 -987.35,475.99 -902.44,391.72 -878.97,350.88 -1774.66,664.45 -1509.01,528.41 -2267.05,785.38 -3803.71,1562.72l-11145.16 4953.48c-1643.12,828.15 -1995.28,950.04 -3506.54,1859.56 -2635.29,1586.19 -7488.75,7110.85 -2676.46,9227.06 36.99,16.4 3456.37,1109.56 3659.63,1129.82 2206.26,221.59 5174.75,-1841.87 5963.66,-3897.94 1211.84,-3157.27 2215.59,-2948.54 5129.72,-4627.04 3649.34,-2101.74 8472.56,-3930.75 11615.36,-6922.07 2190.18,-2085.01 5624.68,-2233.92 8366.43,-3341.88 1392.26,-562.5 1670.78,-960.01 3411.99,-1466.23 4119.53,-1197.36 6763.83,-3901.16 11709.59,-3901.16l-6838.12 14138.73c-971.91,2447.79 -3162.42,4156.2 -4282.27,6449.94l-1377.47 2037.42c-2139.69,2182.46 -1244,2434.93 -2625.32,4692 -2081.48,3400.73 -2554.25,2161.24 -5555.86,8591.56 -1108.6,2375.11 -2245.18,1507.72 -2591.55,4095.74 -283.34,2120.07 1036.24,73.97 -514.26,2085.66 -1685.89,2187.61 -932.35,2470.31 -2382.83,3901.8 -1159.73,1144.3 -818.5,359.24 -1397.73,2055.43 -1243.68,3640.01 -1171.96,1631.22 -3313.25,4005.04 -1443.08,1599.38 -405.87,368.57 -981.56,2433 -326.44,1171.31 -426.14,1197.36 -961.62,2453.26 -1369.1,3209.37 -3659.95,6750.32 -1593.59,10157.17 3163.38,5214.95 10900.73,1807.46 14055.43,-1110.21l10275.52 -13140.44c923.99,-1322.47 270.48,-549.31 1370.07,-1556.93 604.95,-554.14 893.12,-782.16 1524.12,-1402.87 2687.39,-2645.91 3061.11,-2277.66 2311.75,-5493.46 1802.96,-420.03 2976.2,-271.76 3826.55,-1539.56 2094.66,-3122.21 1904.91,-1753.43 2690.29,-3164.02 1060.68,-1905.23 474.06,-1927.1 2646.87,-3206.8 1981.78,-1167.45 4560.47,-3923.99 6022.19,-5686.11l2943.72 -2910.27c1870.5,-2482.21 -349.59,-1533.13 3026.7,-2827.3 2840.48,-1088.66 720.09,-980.92 6298.14,-4922.28 1400.62,-989.6 2331.69,-1208.62 3627.15,-2226.52l13731.57 -9684.72c1262.97,-824.94 2799.64,-886.69 4136.9,-1729.95 2808.32,-1770.48 -154.05,-2035.49 3736.17,-1129.18 -251.5,3021.55 -3065.61,5253.22 -4503.86,7692.01 -1832.55,3108.06 -929.78,2844.34 -4565.61,8118.14l-2865.89 3476.31c-13.83,12.86 -509.76,442.54 -520.37,454.76 -659.63,750.64 -146.66,-6.11 -583.41,880.25l-5497.32 11608.92 -476.63 5780.66c2096.59,6496.25 9408.77,3082.98 13164.56,533.56 1665.95,-1130.79 2084.69,-2789.35 3596.59,-4208.94 607.85,-570.54 413.27,-340.27 922.71,-1028.52 503.32,-679.89 249.89,-478.24 772.19,-1179.35 918.53,-1232.74 2861.39,-3060.46 4021.12,-4271.98 69.47,-72.36 169.49,-176.24 240.24,-247.32 71.08,-71.08 174.96,-171.1 247.64,-240.57l7185.47 -7937.4c921.74,-761.58 1156.52,-764.15 2165.74,-1737.03 769.94,-742.28 1162.63,-1254.93 1935.79,-1966.66 1767.58,-1628 4049.1,-1926.14 2810.89,-4506.76 3024.77,0 3028.95,-35.38 4516.73,-1825.15 2321.4,-2792.88 7129.18,-6553.82 10185.15,-8840.16 1307.68,-978.02 2250.97,-1665.95 3619.75,-2722.13 1989.49,-1536.02 3826.87,-1960.23 5726.63,-3542.24l3705.62 -2636.26c1035.91,-821.4 899.23,-790.52 2491.53,-923.03 -2704.12,5110.42 -3829.76,2817.33 -3414.56,7805.21 -3159.84,736.49 -2448.44,2314.97 -4495.82,4773.37 -2196.93,2638.51 -4643.76,5412.42 -6002.9,8632.08l-575.69 1375.54c-3320.97,6055.96 -4812.29,5538.81 -3560.89,8147.41 -4465.91,99.38 -1079.65,1094.77 -4120.5,4133.69l-6346.06 10766.94c-1699.08,4395.16 -3841.34,18094.56 4125,18272.09 205.51,1878.86 505.9,1544.7 1911.99,2478.02 2678.71,1778.2 6201.65,1660.49 9308.11,936.54 1548.24,-6645.48 -1951.22,-7651.16 -1951.22,-11220.1 0,-3491.43 2302.75,-8645.27 3943.61,-11689.65 875.11,-1622.86 604.95,-2541.38 1147.51,-3362.78l1769.19 -2965.27c572.47,-1067.75 1868.57,-2517.58 2750.43,-3592.41 1084.8,-1322.47 1606.78,-2301.14 2420.78,-3921.42 1477.81,-2941.47 3655.13,-5230.06 5192.76,-7978.56 1328.58,-2374.79 2304.35,-1952.19 3412.95,-4392.58 1504.5,-3312.93 4550.5,-6427.1 5693.83,-8941.15 620.07,-1363.96 257.93,-1258.15 734.56,-2680 1580.08,-4712.59 1457.55,328.04 1581.05,-7490.03 236.71,-15018.34 -15145.05,-8527.23 -23030.03,-4202.19 -3165.95,1736.71 -5243.89,4979.53 -8011.37,6623.29 -743.89,442.22 -2362.24,1268.44 -3062.07,1816.47 -1460.44,1143.33 -1035.91,1559.18 -2274.12,2604.1 -1933.86,1631.54 -5063.79,3499.79 -6576.65,5619.21 -945.86,1325.04 45.35,352.17 -1159.09,1279.7l-5021.01 4735.74c-944.9,749.04 -1965.37,981.88 -2725.67,2152.87 -1425.06,2194.36 324.19,2062.5 -2154.16,2724.38z"/>
   <path class="fil1" d="M307823.04 129276l-30245.73 0 3421.31 -7799.1c543.2,-1221.48 1158.77,-2231.35 1784.63,-3581.48l19504.51 -42449.96c1329.87,-2766.19 2363.53,-5231.99 3749.36,-7958.94l5207.23 -11379.29c584.05,-1313.47 1354.31,-2601.85 1938.36,-3915.31 1195.43,-2687.72 2394.08,-5024.23 3489.82,-7730.6 565.07,-1396.12 1213.77,-2595.73 1889.8,-3963.87 670.56,-1357.2 1051.99,-2573.86 1775.3,-4078.69 2500.54,-5200.47 4575.9,-10147.52 7164.88,-15275.63l7151.38 -15777.02 32684.83 0c165.31,1986.28 8745.29,19438.58 10385.51,23275.1l24879.3 54149.57c1267.15,2963.66 2251.29,4765.65 3479.85,7740.57l3531.63 7688.47c1334.69,2627.25 2342.95,5114.93 3587.27,7633.15l10725.13 23423.04 -34148.49 0c-500.11,-1042.67 -709.48,-1888.83 -1295.13,-3095.2 -650.94,-1340.8 -1065.82,-2088.55 -1563.36,-3314.86 -887.33,-2186.64 -1989.49,-4755.04 -2990.03,-6766.73l-4391.3 -9755.79c-620.71,-1237.89 -1115.03,-1895.26 -1468.16,-3410.38l-58539.91 0 -11707.98 26342.96zm-36099.72 -487.89c0,4094.13 3094.56,5853.99 7317.65,5853.99l27318.41 0c6709.48,0 7375.22,-3610.42 10450.8,-11013.94 1476.2,-3552.85 5956.91,-12467.63 6623.61,-15329.02l50734.69 0 9908.88 22287.75c1532.48,3136.04 2764.26,4055.21 7165.2,4055.21l31221.18 0c11686.43,0 5877.15,-9871.9 3742.6,-14474.81 -5739.82,-12378.22 -14242.61,-31811.98 -20334.27,-44059.95l-18204.55 -39847.47c-808.21,-1742.17 -1545.99,-2977.49 -2210.44,-4619l-12095.85 -26443.3c-1810.36,-3657.06 -2708.3,-5197.58 -7973.74,-5197.58l-29269.95 0c-6463.12,0 -7440.83,4207.33 -11213.98,12690.19l-20990.36 45355.08c-5426.89,10983.07 -11735.64,26502.8 -17223.96,37413.18l-5528.2 12034.1c-791.49,1646.01 -1428.28,2749.47 -2051.89,4289.67 -1127.25,2784.52 -7385.83,15090.7 -7385.83,17005.9z"/>
   <path class="fil0" d="M330751.12 217573.75c-9100.35,0 -7153.63,-11601.53 1628,-14470.31 4842.52,-1582.01 8876.5,-1140.12 14958.52,-1140.12 -953.9,4094.45 -9116.75,15610.43 -16586.52,15610.43zm19025.63 -20001.08c-6512.97,-145.05 -21581.48,-6034.74 -31079.35,6971.59 -1912.31,2618.57 -17091.45,12054.04 -24046,12054.04 -3213.55,0 -6006.11,394.94 -6993.46,-3772.51 -467.3,-1973.41 84.58,-4578.48 472.45,-7179.68 2010.4,-13474.6 -20703.48,-6665.74 -27958.42,-3038.27 -1517.37,758.68 -4249.47,2430.1 -5522.73,2770.05 0,-2193.08 362.46,-4359.14 -576.33,-5765.55 -887.33,-1329.55 -2635.61,-2039.67 -4790.1,-2039.67 -2227.49,0 -1951.22,4390.01 -1951.22,6829.76 -1606.45,850.02 -1708.41,1096.38 -3216.45,2149.66 -4799.42,3350.88 -29876.51,19050.39 -32173.79,8826.01 -634.22,-2821.51 1181.93,-13401.59 2153.2,-16406.42 452.83,-1401.27 701.44,-1408.34 1040.09,-2862.35 -1869.86,-2792.56 -2919.92,-2439.43 -6341.88,-2439.43 -4551.14,0 -9899.55,30245.73 8780.99,30245.73 10508.69,0 14416.28,-1740.25 23615.36,-8093.7l5166.7 -4101.85c-131.54,5920.56 -3241.85,10732.21 6342.2,10732.21 1175.82,-5048.35 -871.57,-6866.75 10142.69,-13761.16 3713.34,-2324.29 12307.15,-5794.49 17663.6,-6239.93 0,6223.85 -569.25,10090.59 2346.16,13752.15 5989.07,7521.87 18946.84,5987.46 27066.91,2489.28 3616.53,-1557.89 5508.58,-3365.67 8638.19,-5021.34 1145.26,4289.35 8022.62,8780.99 13659.2,8780.99 7159.42,0 11898.05,-2238.1 16387.76,-8003.97 3027.02,-3887.65 4125.65,-5667.13 6217.73,-9880.9l1264.26 -2638.51c47.6,-93.27 125.75,-234.78 169.49,-318.07l352.17 -623.29c0,3094.56 -487.56,4072.9 -487.56,7317.33 0,11313.68 -877.68,39810.48 7186.11,46963.46 2990.03,2652.66 3859.99,2307.89 7448.87,2307.89 0,-5751.72 -2465.48,-1406.73 -4234.03,-6986.07 -854.85,-2697.04 -1473.95,-5243.89 -1916.17,-8328.48 -2184.07,-15237.36 -1100.24,-58060.06 1393.87,-70422.2 737.78,-3654.8 925.6,-6823.97 1480.7,-11203.05l2259.97 -24145.38c432.25,-4524.77 -2997.75,-5751.72 -7277.45,-5751.72 -2645.26,11354.53 -4414.13,38929.91 -5480.92,43790.44 -1985.64,9045.03 -6558.32,20276.38 -7202.83,23042.89z"/>
   <path class="fil1" d="M485394.63 129276l-43417.37 0 0 -123909.9 50734.69 0c21936.87,0 38477.08,5442.97 51229.65,14627.9l8404.38 7694.26c15765.44,17843.06 17889.05,47607.33 6025.09,67241.13 -4801.67,7946.72 -9730.39,13253.65 -16802.64,18808.86 -15210.02,11947.26 -36335.46,15537.74 -56173.8,15537.74zm-49271.36 -123909.9l0 123909.9c0,3819.47 3379.5,5366.1 7317.65,5366.1 17541.07,0 39366.01,432.89 56590.93,-485.31 5694.15,-303.6 12172.39,-1707.12 17073.12,-2928.28 4977.27,-1240.14 10069.37,-2987.14 14473.85,-5039.35 2414.67,-1125.32 4142.37,-2086.3 6347.99,-3408.77 2313.04,-1387.11 4124.04,-2388.29 6290.74,-3953.58 35966.57,-25987.9 36183.01,-78426.82 4323.76,-102456.74 -13551.46,-10221.17 -31840.92,-16370.08 -55341.47,-16370.08l-49758.92 0c-3673.46,0 -7317.65,1218.91 -7317.65,5366.1z"/>
   <path class="fil0" d="M605318.78 211650.29l17.37 -11024.55c4691.68,-207.76 9558,-59.5 14217.85,-73.65 4396.44,-13.51 9211.95,473.09 9284.31,5319.79 72.68,4836.73 -4010.51,5843.38 -8789.67,5884.87 -4645.37,40.2 -10168.74,226.09 -14729.85,-106.45zm-2.25 -20950.8l31.84 -10564.97c4374.25,-161.77 8898.37,-82.33 13242.07,-72.04 10988.21,26.05 11710.55,10570.44 487.89,10727.38 -4386.79,61.43 -9421.32,167.88 -13761.8,-90.37zm-14938.9 31175.83c7861.5,783.77 37505.48,705.62 43573.67,-1589.41 5448.44,-2060.57 9840.38,-5430.75 10325.69,-11998.72 373.07,-5049.96 -1973.74,-8627.26 -5915.42,-10992.39 -766.4,-459.91 -1133.68,-572.15 -1943.18,-976.09 -466.34,-232.53 -599.16,-282.05 -995.07,-522.94 -569.58,-345.73 -735.85,-490.78 -932.35,-662.2 3480.17,-2554.57 8764.26,-4899.12 7880.15,-13168.1 -640.33,-5988.1 -5327.51,-8913.49 -10719.67,-10646.98 -6270.16,-2015.55 -33478.25,-2096.27 -41250.98,-1402.23l-22.83 51959.07z"/>
   <path class="fil0" d="M486126.29 202938.77l-253.75 22440.51 16108.28 0 0 -57564.46 -16098.64 0 0 22928.08 -25855.07 0 0 -22928.08 -15961.63 0 6.75 57065.96 15082.02 5.79 50.49 -22280.03c3927.21,-439.97 9409.42,-139.58 13506.12,-139.26 2118.14,0 11604.74,-421.31 13415.42,471.48z"/>
   <path class="fil0" d="M516613.55 206353.65c-1738.64,4500.97 4033.34,12618.47 8676.78,15717.2 14165.42,9452.51 46938.38,6717.84 46938.38,-18482.43 -1145.91,-2067.33 -417.45,-32663.93 -546.1,-35373.19l-13439.22 184.61c-48.56,5418.85 876.72,33508.81 -649.66,35973.32 -1470.73,6493.03 -5166.06,9799.85 -13171.64,9809.5 -4014.37,4.82 -6370.82,-743.57 -8656.52,-2587.05 -2628.22,-2120.39 -2945.01,-4041.06 -4026.91,-7398.7 -1713.55,-1189.64 -906.3,-15094.56 -906.3,-17844.35 0,-5503.11 400.41,-12631.01 -94.23,-17936.33l-14431.72 237.99c-660.91,5493.14 43.42,30862.58 307.14,37699.42z"/>
   <path class="fil1" d="M492224.07 99030.28l-11707.98 0 0 -63418.45c12096.81,0 29067.98,-885.4 37848.32,10447.26 845.84,1091.55 1169.7,1401.27 1955.73,2434.93 1116.32,1468.48 2191.15,3521.98 2927.96,5365.14 3122.54,7813.9 3667.99,20374.79 197.47,28097.03 -2162.2,4810.68 -3192.97,5860.74 -6700.47,9398.16 -5231.99,5275.73 -14157.7,7675.93 -24521.02,7675.93zm-17561.97 5366.1c11004.29,0 24509.77,802.1 34332.46,-2255.15 9249.58,-2879.08 16269.41,-9324.19 19971.49,-18079.45 4739.6,-11208.52 3121.57,-28111.51 -3652.87,-38609.58 -1289.02,-1997.54 -2982.63,-3377.25 -4670.46,-5085.98 -11740.14,-11886.15 -29407.93,-10120.5 -45980.62,-10120.5l0 74150.66z"/>
   <path class="fil0" d="M400023.55 218061.63c-1021.12,1393.87 77.83,815.29 -5405.98,1423.78l-10692.33 527.77c-3027.02,0 -4773.05,-987.03 -6829.76,0 -1902.02,4111.82 4756.97,5366.1 8780.99,5366.1 5256.11,0 22440.19,1365.57 22440.19,-6829.76 0,-5700.26 -22928.08,-11903.84 -22928.08,-16098.31 0,-2637.22 8886.15,-5072.47 11322.37,-5752.04 2406.63,-670.88 3974.49,-1126.61 6531.95,-1761.47 1856.03,-460.55 6049.53,-802.42 6049.53,-2731.13 0,-1740.57 -2328.47,-3414.88 -5366.1,-3414.88 -4420.24,0 -12262.76,2391.51 -15757.73,3755.79 -4028.2,1572.69 -10152.02,4495.18 -10733.17,9242.5 -898.26,7335.34 11786.13,11201.76 18853.25,14640.44 1488.42,724.27 2115.57,1253.97 3734.89,1631.22z"/>
   <path class="fil1" d="M348313.09 52686.24c1562.39,1144.3 9192.97,18068.83 9756.76,20488.97l-18537.74 0c671.85,-2883.9 8109.46,-17605.39 8780.99,-20488.97zm-17561.97 25855.07l36099.72 0c-609.46,-2615.67 -7429.25,-16413.49 -8712.48,-19581.7 -1344.66,-3319.36 -3044.38,-6538.38 -4452.4,-9695.01 -807.25,-1809.07 -1424.74,-3187.5 -2285.06,-5032.27 -643.22,-1379.07 -1815.18,-3931.07 -2112.03,-5205.62l-1463.66 0c-168.2,2022.94 -7445.97,17553.29 -8459.7,19834.49l-8614.39 19680.11z"/>
   <path class="fil2" d="M579781.78 130739.34l-9.97 -123659.04c8442.65,119.32 101577.45,-749.68 106035,276.91 119.32,27.34 294.6,74.61 435.14,131.22l277.23 1304.46c42.77,392.69 67.22,1027.87 75.9,1428.6l-119.96 20608.29 -73754.11 197.47c-636.15,1996.89 -866.75,18748.72 -554.78,22683.97 243.78,3069.47 -281.09,2071.18 1528.3,2874.89l0 -24877.05 73175.2 0 0 -25367.19 -107811.26 0 0 124397.46 723.31 0z"/>
   <path class="fil3" d="M689308.85 106448.27c-1674.96,-1281.63 -6599.49,-588.23 -8780.99,-588.23l-66833.33 0 0 -24879.62 54637.46 0c1852.49,0.32 5879.4,552.21 7317.65,-634.22l-62814.46 123.5 -64 25821.3 76537.66 157.27z"/>
   <path class="fil0" d="M209280.65 181961.92c2238.74,2360.31 3314.22,2439.11 7805.21,2439.11 530.02,-2274.44 1932.89,-3843.91 2418.2,-6434.82 4.5,-23.16 139.26,-1198.65 139.58,-1205.73 151.48,-3962.91 -4115.68,-3579.55 -7436,-3579.55 -1758.58,7548.57 -2259.65,6281.41 -2927,8780.99z"/>
   <path class="fil3" d="M209732.51 64394.22l-32160.93 0 0 -32685.16 32372.87 0c-2465.16,-1296.42 -30298.15,-906.95 -33270.17,-400.41l-49.21 33482.11c3601.1,620.07 31373.3,589.84 33107.43,-396.55z"/>
   <path class="fil0" d="M486126.29 202938.77c-1810.68,-892.8 -11297.28,-471.48 -13415.42,-471.48 -4096.7,-0.32 -9578.91,-300.71 -13506.12,139.26l-50.49 22280.03 -15082.02 -5.79 -6.75 -57065.96c-687.61,846.48 -215.16,-292.35 -526.16,1052.32l-98.41 56512.14 14683.86 48.89c2266.4,-213.87 1941.9,-594.02 1948.97,-2929.25 19.62,-6506.86 -46.63,-13045.57 -46.63,-19560.15l26099.18 0z"/>
   <path class="fil0" d="M516613.55 206353.65c-263.72,-6836.84 -968.05,-32206.28 -307.14,-37699.42l14431.72 -237.99c494.64,5305.32 94.23,12433.22 94.23,17936.33 0,2749.79 -807.25,16654.7 906.3,17844.35l0 -36382.09 -16098.64 0 -36.66 36605.93c319.04,1830.94 -186.54,987.67 1010.18,1932.89z"/>
   <path class="fil0" d="M557593.74 204373.16c1526.37,-2464.52 601.09,-30554.47 649.66,-35973.32l13439.22 -184.61c128.64,2709.26 -599.81,33305.87 546.1,35373.19l487.89 -35773.6 -15122.86 0 0 36558.34z"/>
   <path class="fil4" d="M176624.44 130739.34l947.15 0 0 -40977.93c5420.46,0 23183.76,-765.12 26607,487.89 -867.07,-1577.51 -1094.13,-1143.65 -3175.92,-1127.25 -5545.89,44.38 -21206.48,-254.07 -24362.47,270.8l-15.76 41346.5z"/>
  </g>
 </g>
</svg>
