<?xml version="1.0" encoding="UTF-8"?>
<!DOCTYPE svg PUBLIC "-//W3C//DTD SVG 1.1//EN" "http://www.w3.org/Graphics/SVG/1.1/DTD/svg11.dtd">
<!-- Creator: CorelDRAW -->
<svg xmlns="http://www.w3.org/2000/svg" xml:space="preserve" width="67.7414mm" height="67.7414mm" version="1.1" style="shape-rendering:geometricPrecision; text-rendering:geometricPrecision; image-rendering:optimizeQuality; fill-rule:evenodd; clip-rule:evenodd"
viewBox="0 0 490.9 490.9"
 xmlns:xlink="http://www.w3.org/1999/xlink"
 xmlns:xodm="http://www.corel.com/coreldraw/odm/2003">
 <defs>
  <style type="text/css">
   <![CDATA[
    .fil6 {fill:none}
    .fil1 {fill:#0F4A44}
    .fil0 {fill:#127C71}
    .fil3 {fill:#A2E082}
    .fil5 {fill:#CCCCCC}
    .fil4 {fill:#FDFEFE}
    .fil2 {fill:#FF6191}
   ]]>
  </style>
   <clipPath id="id0">
    <path d="M245.45 0c135.56,0 245.45,109.89 245.45,245.45 0,135.56 -109.89,245.45 -245.45,245.45 -135.56,0 -245.45,-109.89 -245.45,-245.45 0,-135.56 109.89,-245.45 245.45,-245.45z"/>
   </clipPath>
 </defs>
 <g id="Layer_x0020_1">
  <metadata id="CorelCorpID_0Corel-Layer"/>
  <path class="fil0" d="M245.45 0c135.56,0 245.45,109.89 245.45,245.45 0,135.56 -109.89,245.45 -245.45,245.45 -135.56,0 -245.45,-109.89 -245.45,-245.45 0,-135.56 109.89,-245.45 245.45,-245.45z"/>
  <g style="clip-path:url(#id0)">
   <g id="_105553233449184">
    <g>
     <path id="_1" class="fil1" d="M467.89 398.23c16.66,-16.73 30.85,-31.02 35.25,-35.42 2.03,-2.03 5.93,-4.84 6.67,-7.6l-39.54 -41.61c7.59,-7.53 13.24,-13.04 14.1,-13.62l19.71 19.38 0.15 -60.34 -140.26 -147.61 -59.57 0c0.3,1.13 0.89,1.97 1.59,2.72l16.71 17.58c-2.83,3.84 -11.44,11.62 -15.04,15.22 -1.37,1.37 -2.33,2.41 -3.74,3.71 -0.58,0.53 -0.43,0.35 -0.99,0.87l-18.32 18.29c-0.13,0.13 -0.48,0.51 -0.61,0.63 -0.48,0.48 -0.4,0.39 -0.94,0.92l-0.93 0.93c-3.22,3.38 -14.42,15.35 -19.84,19.9l-74.71 -78.63c-0.11,-0.12 -0.21,-0.21 -0.29,-0.29l-3.88 -4.08c-1.01,-0.84 -1.75,-1.27 -2.95,-2.26 -1.31,-1.09 -2.11,-1.62 -3.62,-2.6 -14.17,-9.2 -32.24,-11.23 -48.13,-4.8 -4.52,1.83 -12.19,6.05 -14.94,9.41 -0.91,0.72 -1.93,1.23 -2.76,2.06 -0.84,0.84 -1.32,1.81 -2.06,2.74 -3.3,2.75 -7.51,10.29 -9.23,14.51 -2.64,6.45 -3.78,11.42 -3.81,20.4 -0.04,13.16 5.07,25.43 13.33,34.75l54.07 56.9 -42.11 42.23c0.38,1.22 1.03,2.14 1.79,2.94l37.62 39.6 -13.67 13.62 -19.86 -19.54 -0.15 60.34 140.26 147.61 59.57 0c-0.25,-0.95 -1.63,-2.63 -3.54,-4.64l-14.76 -15.53 60.63 -60.33 74.54 78.44c0.07,0.07 0.14,0.14 0.2,0.2l3.93 4.07c4.21,3.61 9.14,6.75 14.25,8.99 12.89,5.64 27.61,5.89 40.45,0.7 4.54,-1.84 12.16,-6.03 14.94,-9.41 2.94,-2.33 2.66,-1.33 4.81,-4.81 3.29,-2.71 7.51,-10.31 9.23,-14.5 6.51,-15.92 4.75,-33.89 -4.38,-48.2l-5.12 -6.94 -54.05 -56.88z"/>
     <g>
      <path class="fil2" d="M256.15 279.73c-3.27,-2.24 -9.58,-9.27 -12.72,-12.41 -2.48,-2.48 -10.2,-11.23 -12.88,-11.94l-83.61 83.3 -19.86 -19.54 -0.15 60.34 59.57 0c-0.9,-3.38 -15.98,-15.92 -18.61,-19.86l63.14 -62.82 25.13 24.82c3.13,-2.05 94.26,-93.95 106.73,-106.42 2.03,-2.03 5.93,-4.84 6.67,-7.6l-20.32 -20.63 -93.07 92.76z"/>
      <path class="fil3" d="M323.01 131.28c-2.45,3.66 -11.61,11.92 -15.36,15.67 -1.37,1.37 -2.33,2.41 -3.74,3.71 -0.58,0.53 -0.43,0.35 -0.99,0.87l-18.32 18.29c-0.13,0.13 -0.48,0.51 -0.61,0.63 -0.48,0.48 -0.4,0.39 -0.94,0.92l-0.93 0.93c-3.91,4.11 -19.61,20.9 -22.41,21.65l-25.29 -24.97 -113.23 113.55c0.82,2.65 2.94,3.87 4.65,5.58l15.98 15.67 92.92 -92.61 24.82 24.5c3.1,-0.96 18.82,-17.89 21.4,-20.47 5.19,-5.19 60.29,-60.92 63.14,-62.83l19.71 19.38 0.15 -60.34 -59.57 0c0.64,2.4 2.55,3.48 4.19,5.12l14.43 14.74z"/>
      <path class="fil4" d="M339.36 325.56c0,-3.1 -0.24,-6.75 3.43,-6.58 3.45,0.16 3.08,3.54 3.08,6.66 4.99,0.55 12.97,5.76 6.96,9.38 -3.68,0.81 -3.41,-1.74 -6.36,-2.65 -10.15,-3.14 -13.94,5.19 -7.88,6.87 2.45,0.68 6.51,-0.11 9.33,0.48 4.9,1.03 8.87,5.4 7.88,11.73 -1.34,8.56 -7.97,6.53 -9.74,9.45l-1.05 5.34 -4.8 -0.31c-0.99,-2.57 -0.62,-2.95 -1.08,-6.15 -12.65,-1.97 -10.36,-13.97 -2.68,-8.01 4.96,3.85 16.98,1.42 12.12,-4.62 -1.53,-1.9 -6.05,-1.09 -8.82,-1.2 -13.76,-0.53 -14.27,-19.25 -0.38,-20.39zm-2.44 -15.09c-16.22,2.96 -30.72,18.44 -26.44,38.68 3.35,15.84 18.34,29.49 38.43,25.86 15.85,-2.86 29.7,-18.88 26.11,-38.23 -2.97,-16.03 -18.27,-29.93 -38.09,-26.31z"/>
      <path class="fil4" d="M136.71 144.95c3.6,0 12.95,-1.75 13.06,3.11 0.11,5.05 -8.73,3.37 -12.95,3.4 1.08,6.25 6.63,11.32 13.68,11.67 4.19,0.21 13.77,-5.34 12.9,1.54 -0.27,2.11 -1.59,2.45 -3.56,3.23 -9.59,3.84 -20.61,0.86 -26.15,-7.39 -2.57,-3.83 -2.17,-5.03 -3.98,-9.04l-5.39 -0.6c-1.52,-5.36 0.76,-5.91 5.76,-5.92 2.15,-12.37 14.7,-22.47 29.55,-16.58 4.6,1.82 4.56,6.4 0.8,6.84 -0.83,0.1 -19.51,-7.87 -23.73,9.74zm7.79 -29.36c-16.98,2.14 -31.2,16.87 -28.99,36.37 1.93,16.97 17.27,31.22 36.78,28.84 16.78,-2.05 31.01,-17.56 28.43,-37.04 -2.16,-16.28 -17.16,-30.57 -36.22,-28.17z"/>
      <path class="fil5" d="M144.51 115.58c19.05,-2.4 34.06,11.89 36.22,28.17 2.59,19.49 -11.65,35 -28.43,37.04 -19.51,2.38 -34.85,-11.87 -36.78,-28.84 -2.21,-19.5 12,-34.23 28.99,-36.37zm-35.57 -1.83l8.88 8.84c-3.31,6.93 -8.98,11.27 -9.02,25.44 -0.04,12.08 3.97,17.37 9.04,25.44 -1.8,2.47 -4.85,4.85 -6.86,6.98 -1.52,1.61 -1.15,0.67 -1.73,2.95l4.05 3.91c4.31,-1.95 5.71,-6.58 10.07,-8.9 4.92,5.24 15.55,9.24 25.3,9.14 15.2,-0.16 21.94,-7.91 25.38,-9.01l8.75 8.53c2.87,-1.38 2.89,-1.45 4.31,-4.3l-8.56 -9.31c2.39,-3.82 4.15,-5.76 6.32,-10.95 5.38,-12.85 2.15,-31.09 -6.44,-39.16 2.32,-4.36 7,-5.72 8.87,-10.07l-3.88 -4.08c-3.64,1.04 -5.9,5.7 -9.93,8.64 -8.06,-5.13 -13.65,-9.1 -25.44,-9.04 -14.36,0.07 -18.72,5.84 -25.54,9.11l-8.73 -8.97c-0.91,0.72 -1.93,1.23 -2.76,2.06 -0.84,0.84 -1.32,1.81 -2.06,2.74z"/>
      <path class="fil5" d="M336.92 310.47c19.82,-3.62 35.12,10.28 38.09,26.31 3.59,19.35 -10.26,35.37 -26.11,38.23 -20.09,3.63 -35.08,-10.03 -38.43,-25.86 -4.28,-20.23 10.22,-35.71 26.44,-38.68zm-28.8 -6.67c-2.96,1.51 -2.62,1.66 -4.31,4.32l8.66 8.62c-0.89,2.38 -1.98,3.1 -3.34,5.43 -8.14,13.94 -8.04,33.95 3.34,45.4 -2.16,4.27 -6.88,5.91 -8.91,10.05l3.93 4.07c3.5,-0.92 5.81,-5.45 9.93,-8.62 8.07,5.15 13.55,9.07 25.44,9.04 11.28,-0.03 18.83,-4.42 25.28,-9.18 2.24,1.67 7.42,6.77 8.99,9.04 2.94,-2.33 2.66,-1.33 4.82,-4.82 -2.58,-1.9 -7.06,-6.47 -9.03,-9.03 4.66,-6.09 9.14,-14.4 9.17,-25.25 0.03,-12.02 -3.92,-17.36 -9.03,-25.44 3.16,-4.12 7.69,-6.41 8.62,-9.93l-4.07 -3.93c-4.22,2.06 -5.66,6.68 -10.05,8.91 -11.01,-10.71 -31.38,-12.08 -45.45,-3.37 -2.12,1.31 -3.14,2.51 -5.22,3.23l-8.78 -8.53z"/>
      <path class="fil4" d="M303.57 377.62c2.03,-4.14 6.75,-5.78 8.91,-10.05 -11.38,-11.45 -11.48,-31.45 -3.34,-45.4 1.36,-2.33 2.45,-3.06 3.34,-5.43l-8.66 -8.62c-3.86,2.5 -7.64,10.43 -9.56,14.68 -6.81,15.05 -4.65,34.67 4.05,47.89 1.04,1.58 4.12,5.85 5.27,6.93z"/>
      <path class="fil4" d="M308.12 303.8l8.78 8.53c2.08,-0.72 3.11,-1.92 5.22,-3.23 14.07,-8.71 34.44,-7.34 45.45,3.37 4.39,-2.22 5.83,-6.85 10.05,-8.91 -11.43,-12.07 -36.72,-17.5 -54.82,-9.31 -4.27,1.93 -12.17,5.73 -14.68,9.54z"/>
      <path class="fil4" d="M113.28 187.32c9,9.73 30.28,15.96 45.32,12.24 7.41,-1.84 20.52,-6.75 24.18,-12.48l-8.75 -8.53c-3.43,1.1 -10.18,8.85 -25.38,9.01 -9.75,0.1 -20.37,-3.9 -25.3,-9.14 -4.36,2.33 -5.77,6.95 -10.07,8.9z"/>
      <path class="fil4" d="M187.09 182.78c3.42,-2.21 7.74,-10.23 9.52,-14.71 5.28,-13.25 5.6,-26.89 0.01,-40.08 -1.01,-2.37 -2.71,-5.78 -4.02,-7.77 -1,-1.51 -4.23,-5.97 -5.32,-6.93 -1.88,4.35 -6.55,5.72 -8.87,10.07 8.58,8.07 11.82,26.31 6.44,39.16 -2.18,5.2 -3.93,7.14 -6.32,10.95l8.56 9.31z"/>
      <path class="fil4" d="M381.96 377.15c3.29,-2.71 7.51,-10.31 9.23,-14.5 6.51,-15.92 4.75,-33.89 -4.38,-48.2l-5.12 -6.94c-0.93,3.52 -5.46,5.81 -8.62,9.93 5.11,8.08 9.06,13.42 9.03,25.44 -0.02,10.85 -4.51,19.16 -9.17,25.25 1.97,2.56 6.45,7.13 9.03,9.03z"/>
      <path class="fil4" d="M307.5 381.69c4.21,3.61 9.14,6.75 14.25,8.98 12.89,5.64 27.61,5.89 40.45,0.7 4.54,-1.84 12.16,-6.03 14.94,-9.41 -1.57,-2.27 -6.75,-7.37 -8.99,-9.04 -6.45,4.76 -14,9.15 -25.28,9.18 -11.89,0.03 -17.37,-3.89 -25.44,-9.04 -4.12,3.17 -6.43,7.7 -9.93,8.62z"/>
      <path class="fil4" d="M109.24 183.4c0.59,-2.28 0.22,-1.34 1.73,-2.95 2.01,-2.13 5.06,-4.51 6.86,-6.98 -5.07,-8.07 -9.08,-13.36 -9.04,-25.44 0.05,-14.17 5.71,-18.51 9.02,-25.44l-8.88 -8.84c-3.3,2.75 -7.51,10.29 -9.23,14.51 -2.64,6.45 -3.78,11.42 -3.81,20.4 -0.04,13.16 5.07,25.43 13.33,34.75z"/>
      <path class="fil4" d="M113.76 108.94l8.73 8.97c6.82,-3.27 11.19,-9.04 25.54,-9.11 11.79,-0.06 17.38,3.91 25.44,9.04 4.02,-2.94 6.29,-7.6 9.93,-8.64 -1.01,-0.84 -1.75,-1.27 -2.95,-2.26 -1.31,-1.09 -2.11,-1.62 -3.62,-2.6 -14.17,-9.2 -32.24,-11.23 -48.13,-4.8 -4.52,1.83 -12.19,6.05 -14.94,9.41z"/>
      <path class="fil5" d="M136.71 144.95c4.21,-17.61 22.9,-9.64 23.73,-9.74 3.75,-0.44 3.8,-5.02 -0.8,-6.84 -14.85,-5.89 -27.4,4.21 -29.55,16.58 -4.99,0 -7.27,0.55 -5.76,5.92l5.39 0.6c1.81,4.01 1.41,5.21 3.98,9.04 5.54,8.26 16.55,11.23 26.15,7.39 1.97,-0.79 3.29,-1.12 3.56,-3.23 0.87,-6.88 -8.7,-1.33 -12.9,-1.54 -7.05,-0.35 -12.6,-5.41 -13.68,-11.67 4.22,-0.03 13.07,1.64 12.95,-3.4 -0.11,-4.86 -9.46,-3.11 -13.06,-3.11z"/>
      <path class="fil5" d="M339.36 325.56c-13.89,1.14 -13.37,19.86 0.38,20.39 2.78,0.11 7.3,-0.7 8.82,1.2 4.86,6.04 -7.16,8.46 -12.12,4.62 -7.68,-5.96 -9.97,6.05 2.68,8.01 0.46,3.2 0.1,3.58 1.08,6.15l4.8 0.31 1.05 -5.34c1.77,-2.92 8.4,-0.89 9.74,-9.45 0.99,-6.32 -2.98,-10.69 -7.88,-11.73 -2.81,-0.59 -6.87,0.2 -9.33,-0.48 -6.06,-1.69 -2.27,-10.01 7.88,-6.87 2.95,0.91 2.67,3.46 6.36,2.65 6.01,-3.62 -1.97,-8.83 -6.96,-9.38 -0,-3.11 0.37,-6.49 -3.08,-6.66 -3.66,-0.17 -3.43,3.48 -3.43,6.58z"/>
     </g>
    </g>
   </g>
  </g>
  <path class="fil6" d="M245.45 0c135.56,0 245.45,109.89 245.45,245.45 0,135.56 -109.89,245.45 -245.45,245.45 -135.56,0 -245.45,-109.89 -245.45,-245.45 0,-135.56 109.89,-245.45 245.45,-245.45z"/>
 </g>
</svg>
